<?xml version="1.0" encoding="UTF-8" standalone="no"?>
<!-- Created with Inkscape (http://www.inkscape.org/) -->

<svg
   width="12"
   height="12"
   viewBox="0 0 3.1750001 3.175"
   version="1.1"
   id="svg1"
   inkscape:version="1.4 (e7c3feb100, 2024-10-09)"
   sodipodi:docname="ball.svg"
   xmlns:inkscape="http://www.inkscape.org/namespaces/inkscape"
   xmlns:sodipodi="http://sodipodi.sourceforge.net/DTD/sodipodi-0.dtd"
   xmlns="http://www.w3.org/2000/svg"
   xmlns:svg="http://www.w3.org/2000/svg">
  <sodipodi:namedview
     id="namedview1"
     pagecolor="#ffffff"
     bordercolor="#000000"
     borderopacity="0.25"
     inkscape:showpageshadow="2"
     inkscape:pageopacity="0.0"
     inkscape:pagecheckerboard="0"
     inkscape:deskcolor="#d1d1d1"
     inkscape:document-units="mm"
     inkscape:zoom="27.139743"
     inkscape:cx="9.6537393"
     inkscape:cy="1.2343522"
     inkscape:window-width="1920"
     inkscape:window-height="1125"
     inkscape:window-x="0"
     inkscape:window-y="0"
     inkscape:window-maximized="1"
     inkscape:current-layer="svg1" />
  <defs
     id="defs1" />
  <g
     inkscape:label="Layer 1"
     inkscape:groupmode="layer"
     id="layer1"
     transform="translate(-102.52902,-148.62356)" />
  <path
     id="rect40-5"
     style="fill:#ffffff;stroke-width:0.353128"
     d="M 1.5924148,0.15545551 A 1.4353913,1.4353913 0 0 0 0.15702345,1.5908468 1.4353913,1.4353913 0 0 0 1.5924148,3.0262381 1.4353913,1.4353913 0 0 0 3.0278061,1.5908468 1.4353913,1.4353913 0 0 0 1.5924148,0.15545551 Z" />
  <path
     style="fill:#c51d1d;fill-opacity:1;stroke-width:0.0112797"
     d="m 1.3257575,2.2231117 c -0.029477,-0.00239 -0.069687,-0.00607 -0.089355,-0.00816 l -0.035759,-0.00381 0.00364,-0.07989 C 1.2270047,1.6322867 1.3023451,1.1762879 1.4281374,0.77635542 1.5197439,0.48511061 1.6452217,0.25272441 1.7341082,0.20969521 l 0.024341,-0.011783 0.076449,0.014119 c 0.5468158,0.1009932 0.9944444,0.51657384 1.1353396,1.05405479 0.033375,0.1273161 0.044059,0.2065376 0.044656,0.331124 l 5.209e-4,0.1100113 -0.02068,0.039492 c -0.088192,0.168417 -0.3341304,0.310512 -0.6922279,0.3999455 -0.1507357,0.037646 -0.3054631,0.061657 -0.493807,0.076629 -0.082302,0.00654 -0.4016369,0.00643 -0.4829493,-1.837e-4 z"
     id="path43" />
  <path
     id="path40"
     style="fill:none;stroke:#000000;stroke-width:0.143539"
     d="M 3.027806,1.5908468 A 1.4353913,1.4353913 0 0 1 1.5924148,3.0262381 1.4353913,1.4353913 0 0 1 0.15702355,1.5908468 1.4353913,1.4353913 0 0 1 1.5924148,0.15545551 1.4353913,1.4353913 0 0 1 3.027806,1.5908468 Z" />
  <path
     style="fill:#000000;fill-opacity:1;stroke-width:0.0113135"
     d="M 1.1573329,2.9010803 C 1.0782157,2.8728262 0.95369994,2.8112491 0.87744211,2.7626652 0.59581747,2.5832418 0.38236535,2.3103001 0.27644575,1.9941696 c -0.01231,-0.03674 -0.021544,-0.069311 -0.020521,-0.072381 0.00103,-0.00307 0.01583,0.0049 0.032904,0.017707 0.1740523,0.1305713 0.46003778,0.2403873 0.76806055,0.294929 l 0.074971,0.013275 5.54e-5,0.022634 c 1.168e-4,0.04768 0.01157,0.2127829 0.02002,0.2885844 0.011454,0.1027549 0.037298,0.2314252 0.061433,0.3058539 0.011862,0.03658 0.0167,0.059009 0.01269,0.058828 -0.00356,-1.536e-4 -0.03449,-0.010295 -0.068725,-0.02252 z"
     id="path44" />
  <g
     inkscape:label="Lines of Longitude"
     id="g41"
     transform="matrix(0.5425101,0,0,0.5425101,1.5954287,1.5915282)">
    <path
       id="path41"
       style="fill:none;stroke:#000000;stroke-width:0.264583"
       transform="rotate(7.63349)"
       d="m 0,2.6458333 a 0.69627726,2.6458333 0 0 1 -0.60299379,-1.3229166 0.69627726,2.6458333 0 0 1 0,-2.6458333 A 0.69627726,2.6458333 0 0 1 0,-2.6458333" />
  </g>
  <g
     inkscape:label="Lines of Latitude"
     id="g42"
     transform="matrix(0.5425101,0,0,0.5425101,1.5954287,1.5915282)">
    <path
       id="path42"
       style="fill:none;stroke:#000000;stroke-width:0.264583"
       d="m 2.6458333,0 a 2.6458333,1.160857 0 0 1 -1.3229167,1.0053316 2.6458333,1.160857 0 0 1 -2.6458333,0 A 2.6458333,1.160857 0 0 1 -2.6458333,0" />
  </g>
</svg>
